<?xml version="1.0" encoding="UTF-8" standalone="no"?>
<!DOCTYPE svg PUBLIC "-//W3C//DTD SVG 1.0//EN" "http://www.w3.org/TR/2001/REC-SVG-20010904/DTD/svg10.dtd">
<!-- Generated by Microsoft Visio 11.0, SVG Export, v1.0 DataPipeline17May2022.svg Page-1 -->
<svg xmlns="http://www.w3.org/2000/svg" xmlns:xlink="http://www.w3.org/1999/xlink" xmlns:ev="http://www.w3.org/2001/xml-events"
		xmlns:v="http://schemas.microsoft.com/visio/2003/SVGExtensions/" width="8.26772in" height="11.6929in"
		viewBox="0 0 595.276 841.89" xml:space="preserve" color-interpolation-filters="sRGB" class="st19">
	<v:documentProperties v:langID="1033" v:metric="true" v:viewMarkup="false">
		<v:userDefs>
			<v:ud v:nameU="msvSubprocessMaster" v:prompt="" v:val="VT4(Box)"/>
			<v:ud v:nameU="msvNoAutoConnect" v:val="VT0(1):26"/>
		</v:userDefs>
	</v:documentProperties>

	<style type="text/css">
	<![CDATA[
		.st1 {fill:#ffffcc;stroke:#d8d8d8;stroke-linecap:round;stroke-linejoin:round;stroke-width:2.25}
		.st2 {fill:#000000;font-family:Arial;font-size:0.666664em}
		.st3 {font-size:1em;font-weight:bold}
		.st4 {fill:#f2f2f2}
		.st5 {stroke:none;stroke-linecap:round;stroke-linejoin:round;stroke-width:0.75}
		.st6 {stroke:#164326;stroke-linecap:round;stroke-linejoin:round;stroke-width:0.24}
		.st7 {fill:#f2f2f2;stroke:#f2f2f2;stroke-linecap:round;stroke-linejoin:round;stroke-width:0.24}
		.st8 {fill:#ffffff;stroke:#d8d8d8;stroke-linecap:round;stroke-linejoin:round;stroke-width:2.25}
		.st9 {fill:#f2f2f2;stroke:#164326;stroke-linecap:round;stroke-linejoin:round;stroke-width:0.24}
		.st10 {stroke:#000000;stroke-linecap:round;stroke-linejoin:round;stroke-width:0.24}
		.st11 {fill:#000000;font-family:Calibri;font-size:0.666664em;font-weight:bold}
		.st12 {fill:#0070c0;font-size:0.749991em}
		.st13 {fill:#0070c0;font-size:0.749991em;font-weight:normal}
		.st14 {font-size:1em}
		.st15 {fill:#0070c0;stroke:#d8d8d8;stroke-linecap:round;stroke-linejoin:round;stroke-width:2.25}
		.st16 {fill:#ffffff;font-family:Arial;font-size:1.00001em;font-weight:bold}
		.st17 {fill:#38557a;stroke:#000000;stroke-linecap:round;stroke-linejoin:round;stroke-width:2.25}
		.st18 {fill:#ffffff;font-family:Arial;font-size:0.666664em;font-weight:bold}
		.st19 {fill:none;fill-rule:evenodd;font-size:12px;overflow:visible;stroke-linecap:square;stroke-miterlimit:3}
	]]>
	</style>

	<g v:mID="0" v:index="1" v:groupContext="foregroundPage">
		<title>Page-1</title>
		<v:pageProperties v:drawingScale="0.0393701" v:pageScale="0.0393701" v:drawingUnits="24" v:shadowOffsetX="8.50394"
				v:shadowOffsetY="-8.50394"/>
		<g id="shape11-1" v:mID="11" v:groupContext="shape" transform="translate(56.6929,-557.008)">
			<title>Box.11</title>
			<desc>crops_regions.json Polygon regions for Top ‘N’ Crops in selec...</desc>
			<v:userDefs>
				<v:ud v:nameU="visVersion" v:val="VT0(14):26"/>
			</v:userDefs>
			<v:textBlock v:margins="rect(4,4,4,4)" v:tabSpace="42.5197"/>
			<v:textRect cx="39.685" cy="820.63" width="79.38" height="42.5197"/>
			<rect x="0" y="799.37" width="79.3701" height="42.5197" class="st1"/>
			<text x="6.11" y="808.63" class="st2" v:langID="3081"><v:paragraph v:horizAlign="1"/><v:tabList/>crops_regions.json<v:newlineChar/><tspan
						x="8.35" dy="1.2em" class="st3">Polygon regions </tspan><tspan x="7.02" dy="1.2em" class="st3">for Top </tspan><tspan
						class="st3">‘</tspan><tspan class="st3">N</tspan><tspan class="st3">’</tspan><tspan class="st3"> </tspan><tspan
						class="st3">Crops </tspan><tspan x="6.34" dy="1.2em" class="st3">in selected states</tspan></text>		</g>
		<g id="group2-12" transform="translate(955.276,148.278) rotate(90)" v:mID="2" v:groupContext="group">
			<v:userDefs>
				<v:ud v:nameU="visVersion" v:val="VT0(14):26"/>
			</v:userDefs>
			<title>1-D single, open.2</title>
			<g id="shape3-13" v:mID="3" v:groupContext="shape">
				<title>Sheet.3</title>
				<path d="M-2.25 827.72 L18.9 827.72 L18.9 841.89 L28.35 813.54 L18.9 785.2 L18.9 799.37 L-2.25 799.37 L-2.25 827.72
							 Z" class="st4"/>
				<path d="M-2.25 827.72 L18.9 827.72 L18.9 841.89 L28.35 813.54 L18.9 785.2 L18.9 799.37 L-2.25 799.37" class="st5"/>
			</g>
			<g id="shape4-16" v:mID="4" v:groupContext="shape">
				<title>Sheet.4</title>
				<path d="M0 827.72 L18.9 827.72 L18.9 841.89 L28.35 813.54 L18.9 785.2 L18.9 799.37 L0 799.37" class="st6"/>
			</g>
			<g id="shape12-19" v:mID="12" v:groupContext="shape" transform="translate(-0.523465,-14.4132)">
				<title>Sheet.12</title>
				<rect x="0" y="814.023" width="0.48" height="27.8665" class="st7"/>
			</g>
		</g>
		<g id="shape9-21" v:mID="9" v:groupContext="shape" transform="translate(56.6929,-693.612)">
			<title>Box</title>
			<desc>CLUM_Commodities_2020.shp Catchment scale land use data for A...</desc>
			<v:userDefs>
				<v:ud v:nameU="visVersion" v:val="VT0(14):26"/>
			</v:userDefs>
			<v:textBlock v:margins="rect(4,4,4,4)" v:tabSpace="42.5197"/>
			<v:textRect cx="85.0394" cy="817.795" width="170.08" height="48.189"/>
			<rect x="0" y="793.701" width="170.079" height="48.189" class="st8"/>
			<text x="29.46" y="805.8" class="st2" v:langID="3081"><v:paragraph v:horizAlign="1"/><v:tabList/>CLUM_Commodities_2020.shp<v:newlineChar/><tspan
						x="20.13" dy="1.2em" class="st3">Catchment scale land use data for </tspan><tspan x="18.37" dy="1.2em"
						class="st3">Australia </tspan><tspan class="st3">-</tspan><tspan class="st3"> </tspan><tspan class="st3">Commodities </tspan><tspan
						class="st3">(</tspan><tspan class="st3">CLUMC</tspan><tspan class="st3">) </tspan><tspan class="st3">-</tspan><tspan
						class="st3"> </tspan><tspan x="41.02" dy="1.2em" class="st3">Update December </tspan><tspan class="st3">2020</tspan></text>		</g>
		<g id="group10-36" transform="translate(1153.7,148.278) rotate(90)" v:mID="10" v:groupContext="group">
			<v:userDefs>
				<v:ud v:nameU="visVersion" v:val="VT0(14):26"/>
			</v:userDefs>
			<title>1-D single, open.10</title>
			<g id="shape13-37" v:mID="13" v:groupContext="shape">
				<title>Sheet.13</title>
				<path d="M-0.72 827.72 L18.9 827.72 L18.9 841.89 L28.35 813.54 L18.9 785.2 L18.9 799.37 L-0.72 799.37 L-0.72 827.72
							 Z" class="st4"/>
				<path d="M-0.72 827.72 L18.9 827.72 L18.9 841.89 L28.35 813.54 L18.9 785.2 L18.9 799.37 L-0.72 799.37" class="st6"/>
			</g>
			<g id="shape14-40" v:mID="14" v:groupContext="shape">
				<title>Sheet.14</title>
				<path d="M0 827.72 L18.9 827.72 L18.9 841.89 L28.35 813.54 L18.9 785.2 L18.9 799.37 L0 799.37" class="st6"/>
			</g>
			<g id="shape15-43" v:mID="15" v:groupContext="shape" transform="translate(-0.523465,-14.4132)">
				<title>Sheet.15</title>
				<rect x="0" y="814.023" width="0.48" height="27.8665" class="st9"/>
			</g>
		</g>
		<g id="shape16-45" v:mID="16" v:groupContext="shape" transform="translate(255.118,-693.612)">
			<title>Box.16</title>
			<desc>aagis_asgs16v1_g5a.shp ABARES Regions</desc>
			<v:userDefs>
				<v:ud v:nameU="visVersion" v:val="VT0(14):26"/>
			</v:userDefs>
			<v:textBlock v:margins="rect(4,4,4,4)" v:tabSpace="42.5197"/>
			<v:textRect cx="85.0394" cy="827.717" width="170.08" height="28.3465"/>
			<rect x="0" y="813.543" width="170.079" height="28.3465" class="st8"/>
			<text x="39.67" y="825.32" class="st2" v:langID="3081"><v:paragraph v:horizAlign="1"/><v:tabList/>aagis_asgs16v1_g5a.shp<v:newlineChar/><tspan
						x="51.26" dy="1.2em" class="st3">ABARES Regions</tspan></text>		</g>
		<g id="shape18-49" v:mID="18" v:groupContext="shape" transform="translate(446.457,-607.491)">
			<title>Partial bracket text</title>
			<desc>PARAMETERS Number of Crop Types ‘N’ = 10 States = [“SA”] Broa...</desc>
			<v:userDefs>
				<v:ud v:nameU="Scale" v:val="VT0(1):26"/>
				<v:ud v:nameU="AntiScale" v:val="VT0(1):26"/>
				<v:ud v:nameU="visVersion" v:val="VT0(14):26"/>
			</v:userDefs>
			<v:textBlock v:margins="rect(4,4,4,4)" v:tabSpace="42.5197"/>
			<v:textRect cx="46.063" cy="798.288" width="92.13" height="87.2027"/>
			<path d="M21.26 754.69 L0 754.69 L0 841.89 L21.26 841.89" class="st10"/>
			<text x="4" y="765.89" class="st11" v:langID="3081"><v:paragraph/><v:tabList/>PARAMETERS<v:newlineChar/><v:newlineChar/><tspan
						x="4" dy="2.9em" class="st12">Number of Crop Types </tspan><tspan class="st12">‘</tspan><tspan class="st12">N</tspan><tspan
						class="st12">’</tspan><tspan class="st13"> </tspan><tspan class="st13">= </tspan><tspan class="st13">10<v:newlineChar/><v:newlineChar/></tspan><tspan
						x="4" dy="2.4em" class="st12">States </tspan><tspan class="st13">= [</tspan><tspan class="st13">“</tspan><tspan
						class="st13">SA</tspan><tspan class="st13">”</tspan><tspan class="st13">]<v:newlineChar/><v:newlineChar/></tspan><tspan
						x="4" dy="2.4em" class="st12">Broad Types</tspan><tspan class="st13"> </tspan><tspan class="st13">=<v:newlineChar/></tspan><tspan
						x="4" dy="1.2em" class="st13">[</tspan><tspan class="st13">&#39;</tspan><tspan class="st13">Fruits</tspan><tspan
						class="st13">&#39;,&#39;</tspan><tspan class="st13">Other </tspan><tspan x="4" dy="1.2em" class="st13">crops</tspan><tspan
						class="st13">&#39;,&#39;</tspan><tspan class="st13">Cereals</tspan><tspan class="st13">&#39;,&#39;</tspan><tspan
						class="st13">Nuts</tspan><tspan class="st13">&#39;,&#39;</tspan><tspan class="st13">Pulses</tspan><tspan
						class="st13">&#39;,&#39;</tspan><tspan class="st13">Veg</tspan><tspan x="4" dy="1.5em" class="st13">etables and herbs</tspan><tspan
						class="st13">&#39;,&#39;</tspan><tspan class="st13">Oilseeds</tspan><tspan class="st13">&#39;</tspan><tspan
						class="st13">]</tspan></text>		</g>
		<g id="group17-88" transform="translate(446.457,1015.68) rotate(180)" v:mID="17" v:groupContext="group">
			<v:userDefs>
				<v:ud v:nameU="visVersion" v:val="VT0(14):26"/>
			</v:userDefs>
			<title>1-D single, open.17</title>
			<g id="shape19-89" v:mID="19" v:groupContext="shape">
				<title>Sheet.19</title>
				<path d="M-2.25 833.39 L14.17 833.39 L14.17 841.89 L21.26 824.88 L14.17 807.87 L14.17 816.38 L-2.25 816.38 L-2.25
							 833.39 Z" class="st4"/>
				<path d="M-2.25 833.39 L14.17 833.39 L14.17 841.89 L21.26 824.88 L14.17 807.87 L14.17 816.38 L-2.25 816.38"
						class="st5"/>
			</g>
			<g id="shape20-92" v:mID="20" v:groupContext="shape">
				<title>Sheet.20</title>
				<path d="M0 833.39 L14.17 833.39 L14.17 841.89 L21.26 824.88 L14.17 807.87 L14.17 816.38 L0 816.38" class="st6"/>
			</g>
			<g id="shape21-95" v:mID="21" v:groupContext="shape" transform="translate(-0.452598,-8.74394)">
				<title>Sheet.21</title>
				<rect x="0" y="825.362" width="0.48" height="16.5279" class="st7"/>
			</g>
		</g>
		<g id="shape23-97" v:mID="23" v:groupContext="shape" transform="translate(153.071,-433.701)">
			<title>Box.23</title>
			<desc>Sentinel2withIndices_{Location/TimePeriod}.pkl Sentinel 2 Sat...</desc>
			<v:userDefs>
				<v:ud v:nameU="visVersion" v:val="VT0(14):26"/>
			</v:userDefs>
			<v:textBlock v:margins="rect(4,4,4,4)" v:tabSpace="42.5197"/>
			<v:textRect cx="62.3622" cy="820.63" width="124.73" height="42.5197"/>
			<rect x="0" y="799.37" width="124.724" height="42.5197" class="st1"/>
			<text x="6.1" y="808.63" class="st2" v:langID="3081"><v:paragraph v:horizAlign="1"/><v:tabList/>Sentinel2withIndices_{Location/<tspan
						x="34.35" dy="1.2em" class="st14">TimePeriod</tspan>}.pkl<v:newlineChar/><tspan x="12.12" dy="1.2em"
						class="st3">Sentinel </tspan><tspan class="st3">2 </tspan><tspan class="st3">Satellite Images </tspan><tspan
						x="9.45" dy="1.2em" class="st3">and Indices for Survey Area</tspan></text>		</g>
		<g id="group24-105" transform="translate(1028.98,334.488) rotate(90)" v:mID="24" v:groupContext="group">
			<v:userDefs>
				<v:ud v:nameU="visVersion" v:val="VT0(14):26"/>
			</v:userDefs>
			<title>1-D single, open.24</title>
			<g id="shape25-106" v:mID="25" v:groupContext="shape">
				<title>Sheet.25</title>
				<path d="M-2.25 827.72 L20.79 827.72 L20.79 841.89 L31.18 813.54 L20.79 785.2 L20.79 799.37 L-2.25 799.37 L-2.25
							 827.72 Z" class="st4"/>
				<path d="M-2.25 827.72 L20.79 827.72 L20.79 841.89 L31.18 813.54 L20.79 785.2 L20.79 799.37 L-2.25 799.37"
						class="st5"/>
			</g>
			<g id="shape26-109" v:mID="26" v:groupContext="shape">
				<title>Sheet.26</title>
				<path d="M0 827.72 L20.79 827.72 L20.79 841.89 L31.18 813.54 L20.79 785.2 L20.79 799.37 L0 799.37" class="st6"/>
			</g>
			<g id="shape27-112" v:mID="27" v:groupContext="shape" transform="translate(-0.551811,-14.4132)">
				<title>Sheet.27</title>
				<rect x="0" y="814.023" width="0.48" height="27.8665" class="st7"/>
			</g>
		</g>
		<g id="shape28-114" v:mID="28" v:groupContext="shape" transform="translate(289.134,-377.008)">
			<title>Box.28</title>
			<desc>Sentinel2withIndices_{Location/TimePeriod}_tilepolygons.pkl P...</desc>
			<v:userDefs>
				<v:ud v:nameU="visVersion" v:val="VT0(14):26"/>
			</v:userDefs>
			<v:textBlock v:margins="rect(4,4,4,4)" v:tabSpace="42.5197"/>
			<v:textRect cx="61.6535" cy="820.63" width="123.31" height="42.5197"/>
			<rect x="0" y="799.37" width="123.307" height="42.5197" class="st1"/>
			<text x="5.39" y="808.63" class="st2" v:langID="3081"><v:paragraph v:horizAlign="1"/><v:tabList/>Sentinel2withIndices_{Location/<tspan
						x="10.29" dy="1.2em" class="st14">TimePeriod</tspan>}_tilepolygons.pkl<v:newlineChar/><tspan x="9.42"
						dy="1.2em" class="st3">Polygon regions for Survey </tspan><tspan x="42.53" dy="1.2em" class="st3">Area Tiles</tspan></text>		</g>
		<g id="group29-120" transform="translate(1164.47,332.925) rotate(90.0895)" v:mID="29" v:groupContext="group">
			<v:userDefs>
				<v:ud v:nameU="visVersion" v:val="VT0(14):26"/>
			</v:userDefs>
			<title>1-D single, open.29</title>
			<g id="shape30-121" v:mID="30" v:groupContext="shape">
				<title>Sheet.30</title>
				<path d="M-2.25 827.72 L76.54 827.72 L76.54 841.89 L90.71 813.54 L76.54 785.2 L76.54 799.37 L-2.25 799.37 L-2.25
							 827.72 Z" class="st4"/>
				<path d="M-2.25 827.72 L76.54 827.72 L76.54 841.89 L90.71 813.54 L76.54 785.2 L76.54 799.37 L-2.25 799.37"
						class="st5"/>
			</g>
			<g id="shape31-124" v:mID="31" v:groupContext="shape">
				<title>Sheet.31</title>
				<path d="M0 827.72 L76.54 827.72 L76.54 841.89 L90.71 813.54 L76.54 785.2 L76.54 799.37 L0 799.37" class="st6"/>
			</g>
			<g id="shape32-127" v:mID="32" v:groupContext="shape" transform="translate(-1.14709,-14.4132)">
				<title>Sheet.32</title>
				<rect x="0" y="814.023" width="0.48" height="27.8665" class="st7"/>
			</g>
		</g>
		<g id="shape33-129" v:mID="33" v:groupContext="shape" transform="translate(192.756,-571.181)">
			<title>Box.33</title>
			<desc>&#39;https://explorer.sandbox.dea.ga.gov.au/stac&#39; Digital Earth A...</desc>
			<v:userDefs>
				<v:ud v:nameU="visVersion" v:val="VT0(14):26"/>
			</v:userDefs>
			<v:textBlock v:margins="rect(4,4,4,4)" v:tabSpace="42.5197"/>
			<v:textRect cx="85.0394" cy="822.047" width="170.08" height="39.685"/>
			<rect x="0" y="802.205" width="170.079" height="39.685" class="st8"/>
			<text x="5.91" y="814.85" class="st2" v:langID="3081"><v:paragraph v:horizAlign="1"/><v:tabList/>&#39;https://explorer.sandbox.dea.ga.gov.au/stac&#39;<v:newlineChar/><tspan
						x="25.25" dy="1.2em" class="st3">Digital Earth Australia Sandbox<v:newlineChar/></tspan><tspan x="53.92"
						dy="1.2em" class="st3">Open Data Cube</tspan></text>		</g>
		<g id="group34-134" transform="translate(1091.34,270.709) rotate(90)" v:mID="34" v:groupContext="group">
			<v:userDefs>
				<v:ud v:nameU="visVersion" v:val="VT0(14):26"/>
			</v:userDefs>
			<title>1-D single, open.34</title>
			<g id="shape35-135" v:mID="35" v:groupContext="shape">
				<title>Sheet.35</title>
				<path d="M-2.25 827.72 L20.79 827.72 L20.79 841.89 L31.18 813.54 L20.79 785.2 L20.79 799.37 L-2.25 799.37 L-2.25
							 827.72 Z" class="st4"/>
				<path d="M-2.25 827.72 L20.79 827.72 L20.79 841.89 L31.18 813.54 L20.79 785.2 L20.79 799.37 L-2.25 799.37"
						class="st5"/>
			</g>
			<g id="shape36-138" v:mID="36" v:groupContext="shape">
				<title>Sheet.36</title>
				<path d="M0 827.72 L20.79 827.72 L20.79 841.89 L31.18 813.54 L20.79 785.2 L20.79 799.37 L0 799.37" class="st6"/>
			</g>
			<g id="shape37-141" v:mID="37" v:groupContext="shape" transform="translate(-0.551811,-14.4132)">
				<title>Sheet.37</title>
				<rect x="0" y="814.023" width="0.48" height="27.8665" class="st7"/>
			</g>
		</g>
		<g id="shape38-143" v:mID="38" v:groupContext="shape" transform="translate(447.874,-462.808)">
			<title>Partial bracket text.38</title>
			<desc>PARAMETERS Survey Area origin = [138.43196647747274, -34.6292...</desc>
			<v:userDefs>
				<v:ud v:nameU="Scale" v:val="VT0(1):26"/>
				<v:ud v:nameU="AntiScale" v:val="VT0(1):26"/>
				<v:ud v:nameU="visVersion" v:val="VT0(14):26"/>
			</v:userDefs>
			<v:textBlock v:margins="rect(4,4,4,4)" v:tabSpace="42.5197"/>
			<v:textRect cx="62.3622" cy="780.289" width="124.73" height="123.202"/>
			<path d="M21.26 718.69 L0 718.69 L0 841.89 L21.26 841.89" class="st10"/>
			<text x="4" y="729.89" class="st11" v:langID="3081"><v:paragraph/><v:tabList/>PARAMETERS<v:newlineChar/><v:paragraph/><v:newlineChar/><tspan
						x="4" dy="2.5em" class="st12">Survey Area origin </tspan><tspan class="st12">= [</tspan><tspan class="st12">138</tspan><tspan
						class="st12">.</tspan><tspan class="st12">43196647747274</tspan><tspan class="st12">, </tspan><tspan
						class="st12">-</tspan><tspan x="4" dy="1.5em" class="st12">34</tspan><tspan class="st12">.</tspan><tspan
						class="st12">62929501472954 </tspan><tspan class="st12">] </tspan><tspan class="st12">PortGawlerBeach</tspan><tspan
						class="st12">, </tspan><tspan class="st12">SA<v:newlineChar/><v:paragraph/><v:newlineChar/></tspan><tspan
						x="4" dy="2.9em" class="st12">Satellite Pixel resolution </tspan><tspan class="st12">= </tspan><tspan
						class="st12">10</tspan><tspan class="st12">m resolution<v:newlineChar/><v:paragraph/></tspan><tspan x="4"
						dy="1.2em" class="st12">Survey Tile Size </tspan><tspan class="st12">= </tspan><tspan class="st12">5</tspan><tspan
						class="st12">,</tspan><tspan class="st12">120</tspan><tspan class="st12">m x </tspan><tspan class="st12">5</tspan><tspan
						class="st12">,</tspan><tspan class="st12">120</tspan><tspan class="st12">m </tspan><tspan x="4" dy="1.2em"
						class="st12">[</tspan><tspan class="st12">512</tspan><tspan class="st12">x</tspan><tspan class="st12">512</tspan><tspan
						class="st12">px</tspan><tspan class="st12">]<v:newlineChar/></tspan><tspan x="4" dy="1.2em" class="st12">No of Survey Tiles </tspan><tspan
						class="st12">= </tspan><tspan class="st12">10 </tspan><tspan class="st12">across x </tspan><tspan
						class="st12">5 </tspan><tspan class="st12">up<v:newlineChar/><v:newlineChar/></tspan><tspan x="4"
						dy="2.4em" class="st12">DEA collections </tspan><tspan class="st12">= </tspan><tspan x="4" dy="1.2em"
						class="st12">[&#34;</tspan><tspan class="st12">s</tspan><tspan class="st12">2</tspan><tspan class="st12">a</tspan><tspan
						class="st12">_</tspan><tspan class="st12">ard</tspan><tspan class="st12">_</tspan><tspan class="st12">granule</tspan><tspan
						class="st12">&#34;</tspan><tspan class="st12">,</tspan><tspan class="st12">&#34;</tspan><tspan class="st12">s</tspan><tspan
						class="st12">2</tspan><tspan class="st12">b</tspan><tspan class="st12">_</tspan><tspan class="st12">ard</tspan><tspan
						class="st12">_</tspan><tspan class="st12">granule</tspan><tspan class="st12">&#34;]<v:newlineChar/></tspan><tspan
						x="4" dy="1.2em" class="st12">bands </tspan><tspan class="st12">= (&#34;</tspan><tspan class="st12">nbart</tspan><tspan
						class="st12">_</tspan><tspan class="st12">blue</tspan><tspan class="st12">&#34;</tspan><tspan class="st12">, </tspan><tspan
						class="st12">&#34;</tspan><tspan class="st12">nbart</tspan><tspan class="st12">_</tspan><tspan class="st12">green</tspan><tspan
						class="st12">&#34;</tspan><tspan class="st12">, </tspan><tspan x="4" dy="1.2em" class="st12">&#34;</tspan><tspan
						class="st12">nbart</tspan><tspan class="st12">_</tspan><tspan class="st12">red</tspan><tspan class="st12">&#34;</tspan><tspan
						class="st12">, </tspan><tspan class="st12">&#34;</tspan><tspan class="st12">nbart</tspan><tspan
						class="st12">_</tspan><tspan class="st12">nir</tspan><tspan class="st12">_</tspan><tspan class="st12">1</tspan><tspan
						class="st12">&#34;)<v:newlineChar/></tspan><tspan x="4" dy="1.2em" class="st12">additional</tspan><tspan
						class="st12">_</tspan><tspan class="st12">bands </tspan><tspan class="st12">= [</tspan><tspan class="st12">&#39;</tspan><tspan
						class="st12">NDVI</tspan><tspan class="st12">&#39;,&#39;</tspan><tspan class="st12">kNDVI</tspan><tspan
						class="st12">&#39;,&#39;</tspan><tspan class="st12">NDWI</tspan><tspan class="st12">&#39;</tspan><tspan
						class="st12">]</tspan></text>		</g>
		<g id="group39-246" transform="translate(447.874,1142.36) rotate(180)" v:mID="39" v:groupContext="group">
			<v:userDefs>
				<v:ud v:nameU="visVersion" v:val="VT0(14):26"/>
			</v:userDefs>
			<title>1-D single, open.39</title>
			<g id="shape40-247" v:mID="40" v:groupContext="shape">
				<title>Sheet.40</title>
				<path d="M-2.25 833.39 L15.12 833.39 L15.12 841.89 L22.68 824.88 L15.12 807.87 L15.12 816.38 L-2.25 816.38 L-2.25
							 833.39 Z" class="st4"/>
				<path d="M-2.25 833.39 L15.12 833.39 L15.12 841.89 L22.68 824.88 L15.12 807.87 L15.12 816.38 L-2.25 816.38"
						class="st5"/>
			</g>
			<g id="shape41-250" v:mID="41" v:groupContext="shape">
				<title>Sheet.41</title>
				<path d="M0 833.39 L15.12 833.39 L15.12 841.89 L22.68 824.88 L15.12 807.87 L15.12 816.38 L0 816.38" class="st6"/>
			</g>
			<g id="shape42-253" v:mID="42" v:groupContext="shape" transform="translate(-0.466772,-8.74394)">
				<title>Sheet.42</title>
				<rect x="0" y="825.362" width="0.48" height="16.5279" class="st7"/>
			</g>
		</g>
		<g id="group45-255" transform="translate(909.921,284.882) rotate(90)" v:mID="45" v:groupContext="group">
			<v:userDefs>
				<v:ud v:nameU="visVersion" v:val="VT0(14):26"/>
			</v:userDefs>
			<title>1-D single, open.45</title>
			<g id="shape46-256" v:mID="46" v:groupContext="shape">
				<title>Sheet.46</title>
				<path d="M-2.25 827.72 L216.85 827.72 L216.85 841.89 L231.02 813.54 L216.85 785.2 L216.85 799.37 L-2.25 799.37 L-2.25
							 827.72 Z" class="st4"/>
				<path d="M-2.25 827.72 L216.85 827.72 L216.85 841.89 L231.02 813.54 L216.85 785.2 L216.85 799.37 L-2.25 799.37"
						class="st5"/>
			</g>
			<g id="shape47-259" v:mID="47" v:groupContext="shape">
				<title>Sheet.47</title>
				<path d="M0 827.72 L216.85 827.72 L216.85 841.89 L231.02 813.54 L216.85 785.2 L216.85 799.37 L0 799.37" class="st6"/>
			</g>
			<g id="shape48-262" v:mID="48" v:groupContext="shape" transform="translate(-2.55024,-14.4132)">
				<title>Sheet.48</title>
				<rect x="0" y="814.023" width="0.48" height="27.8665" class="st7"/>
			</g>
		</g>
		<g id="shape49-264" v:mID="49" v:groupContext="shape" transform="translate(130.394,-545.669)">
			<title>Circle</title>
			<desc>1</desc>
			<v:userDefs>
				<v:ud v:nameU="visVersion" v:val="VT0(14):26"/>
			</v:userDefs>
			<v:textBlock v:margins="rect(4,4,4,4)" v:tabSpace="42.5197"/>
			<v:textRect cx="9.92126" cy="831.969" width="19.85" height="19.8425"/>
			<path d="M0 831.97 A9.92126 9.92126 0 0 1 19.84 831.97 A9.92126 9.92126 0 1 1 0 831.97 Z" class="st15"/>
			<text x="6.58" y="835.57" class="st16" v:langID="3081"><v:paragraph v:horizAlign="1"/><v:tabList/>1</text>		</g>
		<g id="shape51-267" v:mID="51" v:groupContext="shape" transform="translate(263.622,-425.197)">
			<title>Circle.51</title>
			<desc>2</desc>
			<v:userDefs>
				<v:ud v:nameU="visVersion" v:val="VT0(14):26"/>
			</v:userDefs>
			<v:textBlock v:margins="rect(4,4,4,4)" v:tabSpace="42.5197"/>
			<v:textRect cx="9.92126" cy="831.969" width="19.85" height="19.8425"/>
			<path d="M0 831.97 A9.92126 9.92126 0 0 1 19.84 831.97 A9.92126 9.92126 0 1 1 0 831.97 Z" class="st15"/>
			<text x="6.58" y="835.57" class="st16" v:langID="3081"><v:paragraph v:horizAlign="1"/><v:tabList/>2</text>		</g>
		<g id="shape52-270" v:mID="52" v:groupContext="shape" transform="translate(397.701,-368.504)">
			<title>Circle.52</title>
			<desc>3</desc>
			<v:userDefs>
				<v:ud v:nameU="visVersion" v:val="VT0(14):26"/>
			</v:userDefs>
			<v:textBlock v:margins="rect(4,4,4,4)" v:tabSpace="42.5197"/>
			<v:textRect cx="9.92126" cy="831.969" width="19.85" height="19.8425"/>
			<path d="M0 831.97 A9.92126 9.92126 0 0 1 19.84 831.97 A9.92126 9.92126 0 1 1 0 831.97 Z" class="st15"/>
			<text x="6.58" y="835.57" class="st16" v:langID="3081"><v:paragraph v:horizAlign="1"/><v:tabList/>3</text>		</g>
		<g id="group53-273" transform="translate(1164.33,462.622) rotate(89.8408)" v:mID="53" v:groupContext="group">
			<v:userDefs>
				<v:ud v:nameU="visVersion" v:val="VT0(14):26"/>
			</v:userDefs>
			<title>1-D single, open.53</title>
			<g id="shape54-274" v:mID="54" v:groupContext="shape">
				<title>Sheet.54</title>
				<path d="M-2.25 827.72 L36.85 827.72 L36.85 841.89 L51.02 813.54 L36.85 785.2 L36.85 799.37 L-2.25 799.37 L-2.25
							 827.72 Z" class="st4"/>
				<path d="M-2.25 827.72 L36.85 827.72 L36.85 841.89 L51.02 813.54 L36.85 785.2 L36.85 799.37 L-2.25 799.37"
						class="st5"/>
			</g>
			<g id="shape55-277" v:mID="55" v:groupContext="shape">
				<title>Sheet.55</title>
				<path d="M0 827.72 L36.85 827.72 L36.85 841.89 L51.02 813.54 L36.85 785.2 L36.85 799.37 L0 799.37" class="st6"/>
			</g>
			<g id="shape56-280" v:mID="56" v:groupContext="shape" transform="translate(-0.750238,-14.4132)">
				<title>Sheet.56</title>
				<rect x="0" y="814.023" width="0.48" height="27.8665" class="st7"/>
			</g>
		</g>
		<g id="shape57-282" v:mID="57" v:groupContext="shape" transform="translate(57.4016,-204.094)">
			<title>Box.57</title>
			<desc>Sentinel2withIndices_{Location/TimePeriod}_tilecrops.pkl Poly...</desc>
			<v:userDefs>
				<v:ud v:nameU="visVersion" v:val="VT0(14):26"/>
			</v:userDefs>
			<v:textBlock v:margins="rect(4,4,4,4)" v:tabSpace="42.5197"/>
			<v:textRect cx="61.6535" cy="814.961" width="123.31" height="53.8583"/>
			<rect x="0" y="788.031" width="123.307" height="53.8583" class="st1"/>
			<text x="5.39" y="798.16" class="st2" v:langID="3081"><v:paragraph v:horizAlign="1"/><v:tabList/>Sentinel2withIndices_{Location/<tspan
						x="16.52" dy="1.2em" class="st14">TimePeriod</tspan>}_tilecrops.pkl<v:newlineChar/><tspan x="9.21"
						dy="1.2em" class="st3">Polygon regions for Top </tspan><tspan class="st3">‘</tspan><tspan class="st3">N</tspan><tspan
						class="st3">’</tspan><tspan class="st3"> </tspan><tspan x="10.74" dy="1.2em" class="st3">Crops in each Survey Area </tspan><tspan
						x="54.76" dy="1.2em" class="st3">Tile</tspan></text>		</g>
		<g id="group58-293" transform="translate(932.598,544.252) rotate(90)" v:mID="58" v:groupContext="group">
			<v:userDefs>
				<v:ud v:nameU="visVersion" v:val="VT0(14):26"/>
			</v:userDefs>
			<title>1-D single, open.58</title>
			<g id="shape59-294" v:mID="59" v:groupContext="shape">
				<title>Sheet.59</title>
				<path d="M-2.25 827.72 L26.46 827.72 L26.46 841.89 L39.69 813.54 L26.46 785.2 L26.46 799.37 L-2.25 799.37 L-2.25
							 827.72 Z" class="st4"/>
				<path d="M-2.25 827.72 L26.46 827.72 L26.46 841.89 L39.69 813.54 L26.46 785.2 L26.46 799.37 L-2.25 799.37"
						class="st5"/>
			</g>
			<g id="shape60-297" v:mID="60" v:groupContext="shape">
				<title>Sheet.60</title>
				<path d="M0 827.72 L26.46 827.72 L26.46 841.89 L39.69 813.54 L26.46 785.2 L26.46 799.37 L0 799.37" class="st6"/>
			</g>
			<g id="shape61-300" v:mID="61" v:groupContext="shape" transform="translate(-0.63685,-14.4132)">
				<title>Sheet.61</title>
				<rect x="0" y="814.023" width="0.48" height="27.8665" class="st7"/>
			</g>
		</g>
		<g id="shape62-302" v:mID="62" v:groupContext="shape" transform="translate(170.079,-192.756)">
			<title>Circle.62</title>
			<desc>4</desc>
			<v:userDefs>
				<v:ud v:nameU="visVersion" v:val="VT0(14):26"/>
			</v:userDefs>
			<v:textBlock v:margins="rect(4,4,4,4)" v:tabSpace="42.5197"/>
			<v:textRect cx="9.92126" cy="831.969" width="19.85" height="19.8425"/>
			<path d="M0 831.97 A9.92126 9.92126 0 0 1 19.84 831.97 A9.92126 9.92126 0 1 1 0 831.97 Z" class="st15"/>
			<text x="6.58" y="835.57" class="st16" v:langID="3081"><v:paragraph v:horizAlign="1"/><v:tabList/>4</text>		</g>
		<g id="group63-305" transform="translate(1028.98,408.189) rotate(90)" v:mID="63" v:groupContext="group">
			<v:userDefs>
				<v:ud v:nameU="visVersion" v:val="VT0(14):26"/>
			</v:userDefs>
			<title>1-D single, open.63</title>
			<g id="shape64-306" v:mID="64" v:groupContext="shape">
				<title>Sheet.64</title>
				<path d="M-2.25 827.72 L93.54 827.72 L93.54 841.89 L107.72 813.54 L93.54 785.2 L93.54 799.37 L-2.25 799.37 L-2.25
							 827.72 Z" class="st4"/>
				<path d="M-2.25 827.72 L93.54 827.72 L93.54 841.89 L107.72 813.54 L93.54 785.2 L93.54 799.37 L-2.25 799.37"
						class="st5"/>
			</g>
			<g id="shape65-309" v:mID="65" v:groupContext="shape">
				<title>Sheet.65</title>
				<path d="M0 827.72 L93.54 827.72 L93.54 841.89 L107.72 813.54 L93.54 785.2 L93.54 799.37 L0 799.37" class="st6"/>
			</g>
			<g id="shape66-312" v:mID="66" v:groupContext="shape" transform="translate(-1.31717,-14.4132)">
				<title>Sheet.66</title>
				<rect x="0" y="814.023" width="0.48" height="27.8665" class="st7"/>
			</g>
		</g>
		<g id="shape67-314" v:mID="67" v:groupContext="shape" transform="translate(204.094,-204.094)">
			<title>Box.67</title>
			<desc>Sentinel2withIndices_{Location/TimePeriod}_tileds.pkl Sentine...</desc>
			<v:userDefs>
				<v:ud v:nameU="visVersion" v:val="VT0(14):26"/>
			</v:userDefs>
			<v:textBlock v:margins="rect(4,4,4,4)" v:tabSpace="42.5197"/>
			<v:textRect cx="104.882" cy="814.961" width="209.77" height="53.8583"/>
			<rect x="0" y="788.031" width="209.764" height="53.8583" class="st1"/>
			<text x="9.05" y="807.76" class="st2" v:langID="3081"><v:paragraph v:horizAlign="1"/><v:tabList/>Sentinel2withIndices_{Location/TimePeriod}_tileds.pkl<v:newlineChar/><tspan
						x="13.95" dy="1.2em" class="st14">Sentinel </tspan>2 Satellite Images, Indices &#38; Ground Truth <tspan
						x="44.85" dy="1.2em" class="st14">segmented into Survey Area Tiles</tspan></text>		</g>
		<g id="group68-319" transform="translate(1122.52,547.087) rotate(90)" v:mID="68" v:groupContext="group">
			<v:userDefs>
				<v:ud v:nameU="visVersion" v:val="VT0(14):26"/>
			</v:userDefs>
			<title>1-D single, open.68</title>
			<g id="shape69-320" v:mID="69" v:groupContext="shape">
				<title>Sheet.69</title>
				<path d="M-2.25 827.72 L24.57 827.72 L24.57 841.89 L36.85 813.54 L24.57 785.2 L24.57 799.37 L-2.25 799.37 L-2.25
							 827.72 Z" class="st4"/>
				<path d="M-2.25 827.72 L24.57 827.72 L24.57 841.89 L36.85 813.54 L24.57 785.2 L24.57 799.37 L-2.25 799.37"
						class="st5"/>
			</g>
			<g id="shape70-323" v:mID="70" v:groupContext="shape">
				<title>Sheet.70</title>
				<path d="M0 827.72 L24.57 827.72 L24.57 841.89 L36.85 813.54 L24.57 785.2 L24.57 799.37 L0 799.37" class="st6"/>
			</g>
			<g id="shape71-326" v:mID="71" v:groupContext="shape" transform="translate(-0.608504,-14.4132)">
				<title>Sheet.71</title>
				<rect x="0" y="814.023" width="0.48" height="27.8665" class="st7"/>
			</g>
		</g>
		<g id="shape72-328" v:mID="72" v:groupContext="shape" transform="translate(402.52,-194.173)">
			<title>Circle.72</title>
			<desc>5</desc>
			<v:userDefs>
				<v:ud v:nameU="visVersion" v:val="VT0(14):26"/>
			</v:userDefs>
			<v:textBlock v:margins="rect(4,4,4,4)" v:tabSpace="42.5197"/>
			<v:textRect cx="9.92126" cy="831.969" width="19.85" height="19.8425"/>
			<path d="M0 831.97 A9.92126 9.92126 0 0 1 19.84 831.97 A9.92126 9.92126 0 1 1 0 831.97 Z" class="st15"/>
			<text x="6.58" y="835.57" class="st16" v:langID="3081"><v:paragraph v:horizAlign="1"/><v:tabList/>5</text>		</g>
		<g id="shape43-331" v:mID="43" v:groupContext="shape" transform="translate(56.6929,-297.638)">
			<title>Box.43</title>
			<desc>CLUMC_GroundTruthLayerGeneration.ipynb</desc>
			<v:userDefs>
				<v:ud v:nameU="visVersion" v:val="VT0(14):26"/>
			</v:userDefs>
			<v:textBlock v:margins="rect(4,4,4,4)" v:tabSpace="42.5197"/>
			<v:textRect cx="178.583" cy="827.717" width="357.17" height="28.3465"/>
			<rect x="0" y="813.543" width="357.165" height="28.3465" class="st17"/>
			<text x="93.69" y="830.12" class="st18" v:langID="3081"><v:paragraph v:horizAlign="1"/><v:tabList/>CLUMC_GroundTruthLayerGeneration.ipynb</text>		</g>
		<g id="shape22-334" v:mID="22" v:groupContext="shape" transform="translate(153.071,-510.236)">
			<title>Box.22</title>
			<desc>DEA_ExtractSentinel.ipynb</desc>
			<v:userDefs>
				<v:ud v:nameU="visVersion" v:val="VT0(14):26"/>
			</v:userDefs>
			<v:textBlock v:margins="rect(4,4,4,4)" v:tabSpace="42.5197"/>
			<v:textRect cx="136.063" cy="827.717" width="272.13" height="28.3465"/>
			<rect x="0" y="813.543" width="272.126" height="28.3465" class="st17"/>
			<text x="84.5" y="830.12" class="st18" v:langID="3081"><v:paragraph v:horizAlign="1"/><v:tabList/>DEA_ExtractSentinel.ipynb</text>		</g>
		<g id="group5-337" transform="translate(909.921,204.971) rotate(90)" v:mID="5" v:groupContext="group">
			<v:userDefs>
				<v:ud v:nameU="visVersion" v:val="VT0(14):26"/>
			</v:userDefs>
			<title>1-D single, open</title>
			<g id="shape6-338" v:mID="6" v:groupContext="shape">
				<title>Sheet.6</title>
				<path d="M-2.25 827.72 L24.93 827.72 L24.93 841.89 L37.39 813.54 L24.93 785.2 L24.93 799.37 L-2.25 799.37 L-2.25
							 827.72 Z" class="st4"/>
				<path d="M-2.25 827.72 L24.93 827.72 L24.93 841.89 L37.39 813.54 L24.93 785.2 L24.93 799.37 L-2.25 799.37"
						class="st5"/>
			</g>
			<g id="shape7-341" v:mID="7" v:groupContext="shape">
				<title>Sheet.7</title>
				<path d="M0 827.72 L24.93 827.72 L24.93 841.89 L37.39 813.54 L24.93 785.2 L24.93 799.37 L0 799.37" class="st6"/>
			</g>
			<g id="shape8-344" v:mID="8" v:groupContext="shape" transform="translate(-0.613912,-14.4132)">
				<title>Sheet.8</title>
				<rect x="0" y="814.023" width="0.48" height="27.8665" class="st7"/>
			</g>
		</g>
		<g id="shape1-346" v:mID="1" v:groupContext="shape" transform="translate(56.6929,-636.919)">
			<title>Box.1</title>
			<desc>CLUMC_Extract.ipynb</desc>
			<v:userDefs>
				<v:ud v:nameU="visVersion" v:val="VT0(14):26"/>
			</v:userDefs>
			<v:textBlock v:margins="rect(4,4,4,4)" v:tabSpace="42.5197"/>
			<v:textRect cx="184.252" cy="827.717" width="368.51" height="28.3465"/>
			<rect x="0" y="813.543" width="368.504" height="28.3465" class="st17"/>
			<text x="142.25" y="830.12" class="st18" v:langID="3081"><v:paragraph v:horizAlign="1"/><v:tabList/>CLUMC_Extract.ipynb</text>		</g>
	</g>
</svg>
